<?xml version="1.0" encoding="utf-8"?>
<!-- Generator: Adobe Illustrator 18.1.0, SVG Export Plug-In . SVG Version: 6.00 Build 0)  -->
<svg version="1.1" id="图层_1" xmlns="http://www.w3.org/2000/svg" xmlns:xlink="http://www.w3.org/1999/xlink" x="0px" y="0px"
	 viewBox="0 0 612 611.6" enable-background="new 0 0 612 611.6" xml:space="preserve">
<path d="M306,0C137.7,0,0,137.7,0,306s137.7,306,306,306s306-137.7,306-306S474.3,0,306,0z M306,543.2
	C175.9,543.2,68.8,436.1,68.8,306S176,68.8,306,68.8c133.9,0,237.2,107.1,237.2,237.2S436.1,543.2,306,543.2z"/>
<path d="M429.1,306.2c0,7.9-2.2,15.7-7.9,21.3l-123.6,146c-12.4,14.6-33.7,15.7-47.2,4.5c-14.6-12.4-15.7-33.7-4.5-47.2l105.6-124.7
	L246,181.6c-12.4-14.6-10.1-35.9,4.5-47.2c14.6-12.4,35.9-10.1,47.2,4.5l123.6,146C426.9,290.5,429.1,298.4,429.1,306.2L429.1,306.2
	z"/>
</svg>
