<?xml version="1.0" encoding="utf-8"?>
<!-- Generator: Adobe Illustrator 18.1.0, SVG Export Plug-In . SVG Version: 6.00 Build 0)  -->
<svg version="1.1" id="图层_1" xmlns="http://www.w3.org/2000/svg" xmlns:xlink="http://www.w3.org/1999/xlink" x="0px" y="0px"
	 viewBox="-205 297 200 200" enable-background="new -205 297 200 200" xml:space="preserve">
<path d="M-138.4,319v22.3h-22.3c-6.1,0-11.2,5-11.2,11.2v111.3c0,6.1,5,11.2,11.2,11.2h111.3c6.1,0,11.2-5,11.2-11.2V352.5
	c0-6.1-5-11.2-11.2-11.2h-22.3V319h33.5c12.3,0,22.2,10,22.2,22.2V475c0,12.3-9.9,22.2-22.2,22.2h-133.8c-12.3,0-22.2-9.9-22.2-22.2
	V341.2c0-12.3,10-22.2,22.2-22.2H-138.4z"/>
<path d="M-116.3,426.9l-15.1-15.1c-4.1-4.2-10.8-4.2-15-0.1c0,0-0.1,0.1-0.1,0.1c-4.2,4.2-4.2,11,0,15.1c0,0,0,0,0,0l22.6,22.7
	c4.1,4.2,10.8,4.2,15,0.1c0,0,0,0,0.1-0.1l45.2-45.4c4.1-4.2,4.1-10.9,0-15.1c-4.1-4.2-10.8-4.2-15-0.1c0,0,0,0-0.1,0.1
	C-78.6,389-116.3,426.9-116.3,426.9z M-160.7,330.2c0-18.5,15-33.4,33.4-33.4h44.6c18.5,0,33.4,15,33.4,33.4
	c0,18.5-15,33.4-33.4,33.4h-44.6C-145.7,363.6-160.7,348.6-160.7,330.2z M-138.4,330.2c0,6.2,4.9,11.1,11,11.1h44.8
	c6.1-0.1,11-5,11-11.1c0-6.2-4.9-11.1-11-11.1h-44.8C-133.5,319.1-138.4,324.1-138.4,330.2z"/>
</svg>
