<?xml version="1.0" encoding="utf-8"?>
<!-- Generator: Adobe Illustrator 18.1.0, SVG Export Plug-In . SVG Version: 6.00 Build 0)  -->
<svg version="1.1" id="图层_1" xmlns="http://www.w3.org/2000/svg" xmlns:xlink="http://www.w3.org/1999/xlink" x="0px" y="0px"
	 viewBox="-297 389 16 16" enable-background="new -297 389 16 16" xml:space="preserve">
<path d="M-292,400.7c-0.2,0-0.3-0.1-0.5-0.2c-0.3-0.3-0.3-0.7,0-0.9l6.1-6.1c0.3-0.3,0.7-0.3,0.9,0c0.3,0.3,0.3,0.7,0,0.9l-6.1,6.1
	C-291.7,400.6-291.9,400.7-292,400.7L-292,400.7z"/>
<path d="M-286,400.7c-0.2,0-0.3-0.1-0.5-0.2l-6.1-6.1c-0.2-0.2-0.2-0.7,0-0.9c0.2-0.2,0.7-0.2,0.9,0l6.1,6.1c0.2,0.2,0.2,0.7,0,0.9
	C-285.7,400.6-285.8,400.7-286,400.7L-286,400.7z"/>
</svg>
