<?xml version="1.0" standalone="no"?><!DOCTYPE svg PUBLIC "-//W3C//DTD SVG 1.1//EN"
  "http://www.w3.org/Graphics/SVG/1.1/DTD/svg11.dtd">
<svg t="1568194929550" class="icon" viewBox="0 0 1024 1024" version="1.1" xmlns="http://www.w3.org/2000/svg" p-id="4338"
     xmlns:xlink="http://www.w3.org/1999/xlink" width="200" height="200">
  <defs>
    <style type="text/css"></style>
  </defs>
  <path
    d="M676.049455 516.584727c-79.662545-29.556364-133.515636-12.381091-177.896728 1.768728-41.006545 13.102545-72.192 23.04-123.252363-2.443637a34.629818 34.629818 0 0 0-43.287273 10.752h-0.023273c-11.52 16.197818-5.12 38.120727 13.172364 47.104 28.16 13.824 53.061818 20.247273 75.613091 22.109091 38.376727 3.188364 69.981091-6.888727 99.374545-16.267636 40.192-12.8 75.566545-24.110545 132.724364-2.466909a34.373818 34.373818 0 0 0 41.821091-15.220364c9.518545-17.221818 0.814545-38.260364-18.245818-45.335273z m0 114.850909c-79.662545-29.556364-133.515636-12.404364-177.896728 1.768728-41.006545 13.079273-72.192 23.04-123.252363-2.466909a34.676364 34.676364 0 0 0-43.287273 10.752h-0.023273c-11.52 16.221091-5.12 38.167273 13.172364 47.127272 28.16 13.800727 53.061818 20.247273 75.613091 22.109091 38.376727 3.188364 69.981091-6.888727 99.374545-16.267636 40.192-12.8 75.566545-24.133818 132.724364-2.466909a34.373818 34.373818 0 0 0 41.821091-15.220364c9.518545-17.221818 0.814545-38.283636-18.245818-45.335273z m0 114.827637c-79.662545-29.533091-133.515636-12.381091-177.896728 1.768727-41.006545 13.102545-72.192 23.063273-123.252363-2.443636a34.676364 34.676364 0 0 0-43.287273 10.752l-0.023273 0.023272c-11.52 16.197818-5.12 38.097455 13.172364 47.080728 28.16 13.824 53.061818 20.270545 75.613091 22.132363 38.376727 3.188364 69.981091-6.912 99.374545-16.290909 40.192-12.8 75.566545-24.110545 132.724364-2.443636a34.350545 34.350545 0 0 0 41.821091-15.243637c9.518545-17.221818 0.814545-38.260364-18.245818-45.335272zM535.249455 360.727273a34.909091 34.909091 0 0 0-69.818182 0V418.909091h69.818182v-58.181818zM116.363636 116.363636h349.090909v81.454546a34.909091 34.909091 0 0 0 69.818182 0V116.363636a69.818182 69.818182 0 0 0-69.818182-69.818181H116.363636a69.818182 69.818182 0 0 0-69.818181 69.818181v791.272728a69.818182 69.818182 0 0 0 69.818181 69.818181h418.909091v-69.818181H116.363636V116.363636z m791.272728 232.727273H581.818182v69.818182h325.818182v488.727273H581.818182v69.818181h325.818182a69.818182 69.818182 0 0 0 69.818181-69.818181V418.909091a69.818182 69.818182 0 0 0-69.818181-69.818182zM197.818182 232.727273h186.181818a34.909091 34.909091 0 0 0 0-69.818182h-186.181818a34.909091 34.909091 0 0 0 0 69.818182z m0 139.636363h186.181818a34.909091 34.909091 0 0 0 0-69.818181h-186.181818a34.909091 34.909091 0 0 0 0 69.818181z"
    p-id="4339"></path>
</svg>
