<?xml version="1.0" encoding="utf-8"?>
<!-- Generator: Adobe Illustrator 18.1.0, SVG Export Plug-In . SVG Version: 6.00 Build 0)  -->
<svg version="1.1" id="图层_1" xmlns="http://www.w3.org/2000/svg" xmlns:xlink="http://www.w3.org/1999/xlink" x="0px" y="0px"
	 viewBox="0 0 612 612" enable-background="new 0 0 612 612" xml:space="preserve">
<path d="M454.1,197.3c9.6-9,8.4-25.5-2.7-35.2l-26.8-22.8c-9-9.6-25.9-8.4-35.2,3L361,176l64.9,55L454.1,197.3z"/>
<polygon points="191.1,376.8 161.7,477.2 256.1,432.1 "/>
<polygon points="416.3,244.2 351.3,188.9 200.4,363.5 265.4,418.5 "/>
<path d="M306,0C137.7,0,0,137.7,0,306s137.7,306,306,306s306-137.7,306-306S474.3,0,306,0z M306,543.2
	C175.9,543.2,68.8,436.1,68.8,306S176,68.8,306,68.8c133.9,0,237.2,107.1,237.2,237.2S436.1,543.2,306,543.2z"/>
</svg>
