<?xml version="1.0" standalone="no"?><!DOCTYPE svg PUBLIC "-//W3C//DTD SVG 1.1//EN"
  "http://www.w3.org/Graphics/SVG/1.1/DTD/svg11.dtd">
<svg t="1572245470231" class="icon" viewBox="0 0 1024 1024" version="1.1" xmlns="http://www.w3.org/2000/svg" p-id="8539"
     xmlns:xlink="http://www.w3.org/1999/xlink" width="200" height="200">
  <defs>
    <style type="text/css"></style>
  </defs>
  <path
    d="M512 288C300.8 288 128 512 128 512s172.8 224 384 224 384-224 384-224-172.8-224-384-224z m0 384c-128 0-243.2-102.4-297.6-160 54.4-57.6 169.6-160 297.6-160 121.6 0 236.8 96 297.6 160-54.4 57.6-169.6 160-297.6 160z"
    p-id="8540"></path>
  <path d="M512 448m-160 0a160 160 0 1 0 320 0 160 160 0 1 0-320 0Z" p-id="8541"></path>
  <path
    d="M896 0H128C57.6 0 0 57.6 0 128v768c0 70.4 57.6 128 128 128h768c70.4 0 128-57.6 128-128V128c0-70.4-57.6-128-128-128z m64 896c0 35.2-28.8 64-64 64H128c-35.2 0-64-28.8-64-64V128c0-35.2 28.8-64 64-64h768c35.2 0 64 28.8 64 64v768z"
    p-id="8542"></path>
</svg>
