<?xml version="1.0" encoding="utf-8"?>
<!-- Generator: Adobe Illustrator 18.1.0, SVG Export Plug-In . SVG Version: 6.00 Build 0)  -->
<svg version="1.1" id="图层_1" xmlns="http://www.w3.org/2000/svg" xmlns:xlink="http://www.w3.org/1999/xlink" x="0px" y="0px"
	 viewBox="-205 297 200 200" enable-background="new -205 297 200 200" xml:space="preserve">
<path d="M-205,297H-5v200h-200V297z M-176.4,325.6v142.9h142.9V325.6H-176.4z M-125,389.9v-15.7h-10v11.4l14.3,11.4l-1.4,2.9
	l15.7-4.3l10,35.7l-17.1,4.3l-8.6-35.7l-5.7,11.4l-5.7-4.3v47.1H-155v-50l-14.3,27.1v-28.6l14.3-30h-11.4V357h12.9v-22.9h18.6V357
	h10v10l32.9-32.9h12.9l32.9,32.9v24.3l-12.9-12.9v15.7h-52.9v-15.7L-125,389.9z M-46.4,457h-81.4v-17.1h51.4l10-42.9l18.6,4.3
	l-10,38.6h11.4V457z M-80.7,395.6l5.7,34.3l-17.1,2.9l-5.7-34.3L-80.7,395.6z M-62.1,374.1L-85,351.3l-22.9,22.9H-62.1z"/>
</svg>
