<?xml version="1.0" standalone="no"?><!DOCTYPE svg PUBLIC "-//W3C//DTD SVG 1.1//EN"
  "http://www.w3.org/Graphics/SVG/1.1/DTD/svg11.dtd">
<svg t="1568194102586" class="icon" viewBox="0 0 1024 1024" version="1.1" xmlns="http://www.w3.org/2000/svg" p-id="6732"
     xmlns:xlink="http://www.w3.org/1999/xlink" width="200" height="200">
  <defs>
    <style type="text/css"></style>
  </defs>
  <path
    d="M433.385909 921.340102c28.496569 0 47.07801 25.232244 47.07801 53.491005 0 28.258761-18.582741 48.84402-47.07801 48.84402H103.520162C46.527025 1023.675127 0.324873 977.857624 0.324873 921.340102V102.659898C0.324873 46.143675 46.527025 0.324873 103.518863 0.324873H774.289543C831.280081 0.324873 877.482234 46.142376 877.482234 102.659898v277.698924c0 28.258761-26.112 51.501482-54.608569 51.501483-28.496569 0-48.585421-23.242721-48.585421-51.501483V102.659898H103.517563l0.0013 818.677605h329.865746z m334.450355 102.335025C626.542457 1023.675127 512 909.13267 512 767.837563S626.542457 512 767.837563 512 1023.675127 626.542457 1023.675127 767.837563 909.13267 1023.675127 767.837563 1023.675127z m0-73.096447c100.926376 0 182.742416-81.816041 182.742416-182.741117 0-100.925076-81.81734-182.741117-182.742416-182.741116-100.923777 0-182.739817 81.816041-182.739817 182.741116 0 100.925076 81.816041 182.741117 182.741116 182.741117z m100.76264-126.970802c11.283492 10.52069 11.899452 28.195086 1.38006 39.478579-10.52069 11.282193-28.196386 11.898152-39.478578 1.377462l-61.284061-57.147777-57.149076 61.284061c-10.52069 11.280893-28.196386 11.899452-39.478579 1.377462-11.279594-10.519391-11.899452-28.193787-1.377462-39.477279l57.147777-61.284061-61.284061-57.149076c-11.282193-10.52069-11.898152-28.195086-1.377462-39.477279 10.519391-11.282193 28.195086-11.900751 39.47598-1.377462l61.28536 57.147776 57.149076-61.284061c10.52069-11.283492 28.196386-11.899452 39.477279-1.380061 11.282193 10.52199 11.900751 28.196386 1.377462 39.478579l-57.147776 61.284061 61.284061 57.149076zM223.194315 345.846904c0-36.675574 21.81068-53.136244 50.788061-53.136244h258.040203c28.97868 0 56.086091 26.568122 56.086091 53.136244s-27.107411 53.136244-56.086091 53.136243H273.979777c-28.976081 0-50.788061-16.46067-50.788061-53.136243z m-4.717158 288.962923c0-37.270741 23.484426-49.713381 49.33133-49.71338h123.876711c25.845604 0 47.340508 12.44264 47.340508 49.71338 0 37.272041-21.493604 49.713381-47.340508 49.713381h-123.876711c-25.845604 0-49.332629-12.44134-49.332629-49.713381z"
    p-id="6733"></path>
</svg>
