<?xml version="1.0" standalone="no"?><!DOCTYPE svg PUBLIC "-//W3C//DTD SVG 1.1//EN" "http://www.w3.org/Graphics/SVG/1.1/DTD/svg11.dtd"><svg t="1562837051486" class="icon" viewBox="0 0 1024 1024" version="1.1" xmlns="http://www.w3.org/2000/svg" p-id="11008" xmlns:xlink="http://www.w3.org/1999/xlink" width="32" height="32"><defs><style type="text/css"></style></defs><path d="M932.977778 841.955556l0 11.377778c0 6.280533-5.097244 11.377778-11.377778 11.377778L136.533333 864.711111c-18.852978 0-34.133333-15.280356-34.133333-34.133333L102.4 170.666667c0-6.280533 5.097244-11.377778 11.377778-11.377778l11.377778 0c6.280533 0 11.377778 5.097244 11.377778 11.377778l0 648.533333c0 6.280533 5.097244 11.377778 11.377778 11.377778l773.688889 0C927.880533 830.577778 932.977778 835.675022 932.977778 841.955556zM216.177778 796.444444l136.533333 0c6.280533 0 11.377778-5.097244 11.377778-11.377778L364.088889 329.955556c0-6.280533-5.097244-11.377778-11.377778-11.377778L216.177778 318.577778c-6.280533 0-11.377778 5.097244-11.377778 11.377778l0 455.111111C204.8 791.3472 209.897244 796.444444 216.177778 796.444444zM432.355556 796.444444l136.533333 0c6.280533 0 11.377778-5.097244 11.377778-11.377778L580.266667 238.933333c0-6.280533-5.097244-11.377778-11.377778-11.377778L432.355556 227.555556c-6.280533 0-11.377778 5.097244-11.377778 11.377778l0 546.133333C420.977778 791.3472 426.075022 796.444444 432.355556 796.444444zM648.533333 796.444444l136.533333 0c6.280533 0 11.377778-5.097244 11.377778-11.377778L796.444444 500.622222c0-6.280533-5.097244-11.377778-11.377778-11.377778L648.533333 489.244444c-6.280533 0-11.377778 5.097244-11.377778 11.377778l0 284.444444C637.155556 791.3472 642.2528 796.444444 648.533333 796.444444z" p-id="11009"></path></svg>