<?xml version="1.0" standalone="no"?><!DOCTYPE svg PUBLIC "-//W3C//DTD SVG 1.1//EN" "http://www.w3.org/Graphics/SVG/1.1/DTD/svg11.dtd"><svg t="1562837045933" class="icon" viewBox="0 0 1024 1024" version="1.1" xmlns="http://www.w3.org/2000/svg" p-id="10742" xmlns:xlink="http://www.w3.org/1999/xlink" width="32" height="32"><defs><style type="text/css"></style></defs><path d="M515.072 551.936c-30.208 0-42.496-10.752-43.008-40.96V182.272c0-12.8-15.36-14.848-15.36-14.848-170.496 26.624-300.032 176.64-294.912 355.84 5.632 183.808 155.136 333.312 338.944 338.944 179.2 5.12 329.216-124.416 355.84-294.912 0 0 0-15.36-16.896-15.36H515.072z" p-id="10743"></path><path d="M525.824 515.072c-9.216 0-16.896-4.608-16.896-16.896V140.8c0-11.776 9.728-20.992 20.992-20.48 203.776 9.216 367.616 175.616 373.76 380.416 0 3.584 0.512 14.336-11.776 14.336h-366.08z" p-id="10744"></path></svg>