<?xml version="1.0" standalone="no"?><!DOCTYPE svg PUBLIC "-//W3C//DTD SVG 1.1//EN" "http://www.w3.org/Graphics/SVG/1.1/DTD/svg11.dtd"><svg t="1560763847553" class="icon" style="" viewBox="0 0 1024 1024" version="1.1" xmlns="http://www.w3.org/2000/svg" p-id="9873" xmlns:xlink="http://www.w3.org/1999/xlink" width="16" height="16"><defs><style type="text/css"></style></defs><path d="M512 887.488A375.936 375.936 0 0 0 887.488 512 375.936 375.936 0 0 0 512 136.512 375.936 375.936 0 0 0 136.512 512 375.936 375.936 0 0 0 512 887.488zM512 0a512 512 0 1 1 0 1024A512 512 0 0 1 512 0z m204.544 443.712a68.288 68.288 0 0 1 0 136.576H307.392a68.288 68.288 0 0 1 0-136.576h409.152z" p-id="9874"></path></svg>