<?xml version="1.0" standalone="no"?><!DOCTYPE svg PUBLIC "-//W3C//DTD SVG 1.1//EN" "http://www.w3.org/Graphics/SVG/1.1/DTD/svg11.dtd"><svg t="1560999632938" class="icon" style="" viewBox="0 0 1024 1024" version="1.1" xmlns="http://www.w3.org/2000/svg" p-id="4429" xmlns:xlink="http://www.w3.org/1999/xlink" width="16" height="16"><defs><style type="text/css"></style></defs><path d="M0.048477 0c0 106.65657 0 213.313133 0 319.969702 42.662627 0 85.325252 0 127.987881 0 0 85.325252 0 170.65051 0 255.975762 85.325252 0 170.65051 0 255.975762 0 0 42.662629 0 85.325233 0 127.987881 42.662629 0 85.325252 0 127.987881 0 0 63.99394 0 127.987881 0 191.981822 64.035601 0 128.071201 0 192.106802 0 16.776395 109.248344 162.503012 166.80443 249.730529 98.671873 88.297432-58.643023 89.252221-210.417516-5.840087-263.027574-70.143694-49.521263-180.913493-34.3531-222.883216 44.643005C707.631779 799.496968 713.880724 843.94652 674.831302 831.921226 641.885493 831.921226 608.939716 831.921226 575.99394 831.921226c0-42.662649 0-85.325233 0-127.987881 42.662629 0 85.325233 0 127.987881 0C703.981822 597.276776 703.981822 490.620212 703.981822 383.963643 597.325252 383.963643 490.668689 383.963643 384.012119 383.963643 384.012119 426.626272 384.012119 469.288895 384.012119 511.951523 320.018178 511.951523 256.024238 511.951523 192.030298 511.951523 192.030298 447.957583 192.030298 383.963643 192.030298 319.969702 234.692927 319.969702 277.35555 319.969702 320.018178 319.969702 320.018178 213.313133 320.018178 106.65657 320.018178 0 213.36161 0 106.705046 0 0.048477 0Zm831.921226 767.927285c21.331292 0 42.662649 0 63.99394 0 0 21.331292 0 42.662649 0 63.99394 21.331292 0 42.662649 0 63.99394 0 0 21.331292 0 42.662649 0 63.99394-21.331292 0-42.662649 0-63.99394 0 0 21.331292 0 42.662649 0 63.99394-21.331292 0-42.662649 0-63.99394 0 0-21.331292 0-42.662649 0-63.99394-21.331292 0-42.662649 0-63.99394 0 0-21.331292 0-42.662649 0-63.99394 21.331292 0 42.662649 0 63.99394 0 0-21.331292 0-42.662649 0-63.99394z" p-id="4430"></path></svg>