<?xml version="1.0" encoding="utf-8"?>
<!-- Generator: Adobe Illustrator 18.1.0, SVG Export Plug-In . SVG Version: 6.00 Build 0)  -->
<svg version="1.1" id="图层_1" xmlns="http://www.w3.org/2000/svg" xmlns:xlink="http://www.w3.org/1999/xlink" x="0px" y="0px"
	 viewBox="-297 389 16 16" enable-background="new -297 389 16 16" xml:space="preserve">
<g>
	<path d="M-293.7,392.7c0.4,0,0.8-0.4,0.8-0.8v-2c0-0.4-0.4-0.8-0.8-0.8s-0.8,0.4-0.8,0.8v2C-294.5,392.3-294.2,392.7-293.7,392.7z"
		/>
	<path d="M-284.2,392.7c0.4,0,0.8-0.4,0.8-0.8v-2c0-0.4-0.4-0.8-0.8-0.8s-0.8,0.4-0.8,0.8v2C-285,392.3-284.6,392.7-284.2,392.7z"/>
	<path d="M-282.7,390.8v0.7c0,0.9-0.7,1.6-1.6,1.6c-0.9,0-1.6-0.7-1.6-1.6v-0.7h-6.4v0.7c0,0.9-0.7,1.6-1.6,1.6
		c-0.9,0-1.6-0.7-1.6-1.6v-0.7h-1.7V405h16v-14.2H-282.7z M-282.9,403.1H-295v-8.5h12.1V403.1L-282.9,403.1L-282.9,403.1z"/>
</g>
<g id="图层_2">
	<path d="M-291.5,401.2L-291.5,401.2c-0.3-0.3-0.2-0.7,0.1-1l4-3.5c0.3-0.3,0.7-0.2,1,0.1l0,0c0.3,0.3,0.2,0.7-0.1,1l-4,3.5
		C-290.8,401.5-291.3,401.5-291.5,401.2z"/>
	<path d="M-291.4,396.8L-291.4,396.8c0.3-0.3,0.7-0.3,1-0.1l3.9,3.5c0.3,0.3,0.3,0.7,0.1,1l0,0c-0.3,0.3-0.7,0.3-1,0.1l-3.9-3.5
		C-291.7,397.6-291.7,397.1-291.4,396.8z"/>
</g>
</svg>
