<?xml version="1.0" encoding="utf-8"?>
<!-- Generator: Adobe Illustrator 18.1.0, SVG Export Plug-In . SVG Version: 6.00 Build 0)  -->
<svg version="1.1" id="图层_1" xmlns="http://www.w3.org/2000/svg" xmlns:xlink="http://www.w3.org/1999/xlink" x="0px" y="0px"
	 viewBox="-297 389 16 16" enable-background="new -297 389 16 16" xml:space="preserve">
<path d="M-293.7,392.7c0.4,0,0.8-0.4,0.8-0.8v-2c0-0.4-0.4-0.8-0.8-0.8s-0.8,0.4-0.8,0.8v2C-294.5,392.3-294.2,392.7-293.7,392.7
	 M-282.7,390.8v0.7c0,0.9-0.7,1.6-1.6,1.6c-0.9,0-1.6-0.7-1.6-1.6v-0.7h-6.4v0.7c0,0.9-0.7,1.6-1.6,1.6c-0.9,0-1.6-0.7-1.6-1.6v-0.7
	h-1.7V405h16v-14.2H-282.7z M-282.9,403.1H-295v-8.5h12.1L-282.9,403.1L-282.9,403.1z M-290.3,401.5c0.3,0.3,0.7,0.4,1,0.1
	c0.2-0.3,0.4-0.5,0.4-0.5c0,0,0.2-0.3,0.5-0.6l2.8-3.1c0.3-0.3,0.4-0.8,0.1-1.1c-0.2-0.3-0.8-0.2-1.1,0.1l-2.7,2.8
	c-0.3,0.3-0.8,0.3-1.1,0l-1.1-1c-0.3-0.3-0.7-0.4-1-0.1c-0.2,0.3-0.3,0.9,0,1.2L-290.3,401.5z M-284.2,392.7c0.4,0,0.8-0.4,0.8-0.8
	v-2c0-0.4-0.4-0.8-0.8-0.8s-0.8,0.4-0.8,0.8v2C-285,392.3-284.6,392.7-284.2,392.7"/>
</svg>
